<?xml version="1.0" standalone="no"?>
<!DOCTYPE svg PUBLIC "-//W3C//DTD SVG 20010904//EN"
 "http://www.w3.org/TR/2001/REC-SVG-20010904/DTD/svg10.dtd">
<svg version="1.0" xmlns="http://www.w3.org/2000/svg"
 width="74.000000pt" height="83.000000pt" viewBox="0 0 74.000000 83.000000"
 preserveAspectRatio="xMidYMid meet">

<g transform="translate(0.000000,83.000000) scale(0.100000,-0.100000)"
fill="#000000" stroke="none">
<path d="M50 680 l0 -90 320 0 320 0 0 90 0 90 -320 0 -320 0 0 -90z"/>
<path d="M286 559 c-20 -16 -26 -29 -26 -59 0 -45 23 -67 83 -77 20 -3 40 -10
43 -14 8 -14 -26 -23 -39 -10 -6 6 -31 11 -55 11 -40 0 -43 -2 -37 -22 15 -48
41 -63 111 -63 60 0 68 3 90 28 45 53 23 108 -53 130 -26 8 -49 19 -51 25 -5
15 24 16 33 2 3 -5 24 -10 46 -10 32 0 39 4 39 19 0 34 -47 61 -105 61 -38 0
-60 -6 -79 -21z"/>
<path d="M260 185 l0 -125 105 0 105 0 0 40 0 40 -60 0 c-33 0 -60 4 -60 10 0
6 27 10 60 10 l60 0 0 30 0 30 -60 0 c-33 0 -60 4 -60 10 0 6 27 10 60 10 l60
0 0 35 0 35 -105 0 -105 0 0 -125z"/>
</g>
</svg>
